<mxfile host="app.diagrams.net" agent="Mozilla/5.0 (Windows NT 10.0; Win64; x64) AppleWebKit/537.36 (KHTML, like Gecko) Chrome/121.0.0.0 Safari/537.36" version="24.7.7">
  <diagram name="第 1 页" id="6RylVw3g7EhP-lsxFx7U">
    <mxGraphModel dx="2074" dy="746" grid="1" gridSize="10" guides="1" tooltips="1" connect="1" arrows="1" fold="1" page="1" pageScale="1" pageWidth="827" pageHeight="1169" math="0" shadow="0">
      <root>
        <mxCell id="0" />
        <mxCell id="1" parent="0" />
        <mxCell id="d3hzj_n655Mc2UOrFgAX-1" value="一级缓存：&lt;div&gt;&lt;pre style=&quot;background-color: rgb(255, 255, 255); font-family: &amp;quot;JetBrains Mono&amp;quot;, monospace; font-size: 13.5pt;&quot;&gt;Map&amp;lt;String, Object&amp;gt; &lt;span style=&quot;color:#660e7a;font-weight:bold;&quot;&gt;singletonObjects&lt;/span&gt;&lt;/pre&gt;&lt;/div&gt;" style="rounded=1;whiteSpace=wrap;html=1;fillColor=#f8cecc;strokeColor=#b85450;" vertex="1" parent="1">
          <mxGeometry x="410" y="310" width="370" height="100" as="geometry" />
        </mxCell>
        <mxCell id="d3hzj_n655Mc2UOrFgAX-2" value="二级缓存：&lt;div&gt;&lt;pre style=&quot;background-color: rgb(255, 255, 255); font-family: &amp;quot;JetBrains Mono&amp;quot;, monospace; font-size: 13.5pt;&quot;&gt;&lt;pre style=&quot;font-family: &amp;quot;JetBrains Mono&amp;quot;, monospace; font-size: 13.5pt;&quot;&gt;Map&amp;lt;String, Object&amp;gt; &lt;span style=&quot;color:#660e7a;font-weight:bold;&quot;&gt;earlySingletonObjects&lt;/span&gt;&lt;/pre&gt;&lt;/pre&gt;&lt;/div&gt;" style="rounded=1;whiteSpace=wrap;html=1;fillColor=#f8cecc;strokeColor=#b85450;" vertex="1" parent="1">
          <mxGeometry x="940" y="300" width="390" height="100" as="geometry" />
        </mxCell>
        <mxCell id="d3hzj_n655Mc2UOrFgAX-4" value="三级缓存：&lt;div&gt;&lt;pre style=&quot;background-color: rgb(255, 255, 255); font-family: &amp;quot;JetBrains Mono&amp;quot;, monospace; font-size: 13.5pt;&quot;&gt;&lt;pre style=&quot;font-family: &amp;quot;JetBrains Mono&amp;quot;, monospace; font-size: 13.5pt;&quot;&gt;Map&amp;lt;String, ObjectFactory&amp;lt;?&amp;gt;&amp;gt; &lt;span style=&quot;color:#660e7a;font-weight:bold;&quot;&gt;singletonFactories&lt;/span&gt;&lt;/pre&gt;&lt;/pre&gt;&lt;/div&gt;" style="rounded=1;whiteSpace=wrap;html=1;fillColor=#f8cecc;strokeColor=#b85450;" vertex="1" parent="1">
          <mxGeometry x="1480" y="300" width="450" height="100" as="geometry" />
        </mxCell>
        <mxCell id="d3hzj_n655Mc2UOrFgAX-5" value="&lt;font style=&quot;font-size: 18px;&quot; face=&quot;Verdana&quot;&gt;实例化Bean&lt;/font&gt;&lt;div style=&quot;line-height: 50%;&quot;&gt;&lt;pre style=&quot;background-color: rgb(255, 255, 255); font-size: 13.5pt; line-height: 50%;&quot;&gt;&lt;font style=&quot;&quot; face=&quot;s8ReCOG9JSWgxtfF6krV&quot;&gt;createBeanInstance()&lt;/font&gt;&lt;/pre&gt;&lt;/div&gt;" style="rounded=1;whiteSpace=wrap;html=1;" vertex="1" parent="1">
          <mxGeometry x="560" y="850" width="230" height="90" as="geometry" />
        </mxCell>
        <mxCell id="d3hzj_n655Mc2UOrFgAX-9" style="edgeStyle=orthogonalEdgeStyle;rounded=0;orthogonalLoop=1;jettySize=auto;html=1;exitX=0.5;exitY=1;exitDx=0;exitDy=0;entryX=0.5;entryY=0;entryDx=0;entryDy=0;" edge="1" parent="1" source="d3hzj_n655Mc2UOrFgAX-6" target="d3hzj_n655Mc2UOrFgAX-8">
          <mxGeometry relative="1" as="geometry" />
        </mxCell>
        <mxCell id="d3hzj_n655Mc2UOrFgAX-6" value="&lt;b&gt;属性填充&lt;/b&gt;&lt;br&gt;&lt;div&gt;&lt;pre style=&quot;background-color: rgb(255, 255, 255); font-family: &amp;quot;JetBrains Mono&amp;quot;, monospace; font-size: 13.5pt;&quot;&gt;populateBean&lt;b&gt;()&lt;/b&gt;&lt;/pre&gt;&lt;/div&gt;" style="rounded=1;whiteSpace=wrap;html=1;" vertex="1" parent="1">
          <mxGeometry x="560" y="1045" width="235" height="90" as="geometry" />
        </mxCell>
        <mxCell id="d3hzj_n655Mc2UOrFgAX-7" value="" style="endArrow=classic;html=1;rounded=0;exitX=0.5;exitY=1;exitDx=0;exitDy=0;entryX=0.5;entryY=0;entryDx=0;entryDy=0;" edge="1" parent="1" source="d3hzj_n655Mc2UOrFgAX-5" target="d3hzj_n655Mc2UOrFgAX-6">
          <mxGeometry width="50" height="50" relative="1" as="geometry">
            <mxPoint x="1000" y="975" as="sourcePoint" />
            <mxPoint x="1050" y="925" as="targetPoint" />
          </mxGeometry>
        </mxCell>
        <mxCell id="d3hzj_n655Mc2UOrFgAX-8" value="&lt;b&gt;初始化Bean&lt;/b&gt;&lt;br&gt;&lt;div&gt;&lt;pre style=&quot;background-color: rgb(255, 255, 255); font-family: &amp;quot;JetBrains Mono&amp;quot;, monospace; font-size: 13.5pt;&quot;&gt;initializeBean&lt;b&gt;()&lt;/b&gt;&lt;/pre&gt;&lt;/div&gt;" style="rounded=1;whiteSpace=wrap;html=1;" vertex="1" parent="1">
          <mxGeometry x="560" y="1245" width="235" height="90" as="geometry" />
        </mxCell>
        <mxCell id="d3hzj_n655Mc2UOrFgAX-12" value="" style="edgeStyle=orthogonalEdgeStyle;rounded=0;orthogonalLoop=1;jettySize=auto;html=1;" edge="1" parent="1" source="d3hzj_n655Mc2UOrFgAX-10" target="d3hzj_n655Mc2UOrFgAX-11">
          <mxGeometry relative="1" as="geometry" />
        </mxCell>
        <mxCell id="d3hzj_n655Mc2UOrFgAX-10" value="&lt;b&gt;User.java&lt;/b&gt;" style="rounded=1;whiteSpace=wrap;html=1;" vertex="1" parent="1">
          <mxGeometry x="620" y="460" width="100" height="50" as="geometry" />
        </mxCell>
        <mxCell id="d3hzj_n655Mc2UOrFgAX-11" value="&lt;b style=&quot;color: rgb(50, 50, 50); font-family: &amp;quot;Microsoft YaHei&amp;quot;, 微软雅黑, Arial; font-size: 13px;&quot;&gt;&lt;font color=&quot;#ff0000&quot;&gt;BeanDefinition&amp;nbsp;&lt;br&gt;&lt;/font&gt;&lt;/b&gt;&lt;span style=&quot;color: rgb(50, 50, 50); font-family: &amp;quot;Microsoft YaHei&amp;quot;, 微软雅黑, Arial; font-size: 13px; background-color: rgba(255, 255, 255, 0.01);&quot;&gt;描述该User的信息&lt;/span&gt;&lt;span style=&quot;color: rgb(50, 50, 50); font-family: &amp;quot;Microsoft YaHei&amp;quot;, 微软雅黑, Arial; font-size: 13px; background-color: initial;&quot;&gt;存储到&lt;/span&gt;&lt;div style=&quot;resize: none; outline: none; font-size: 13px; color: rgb(50, 50, 50); font-family: &amp;quot;Microsoft YaHei&amp;quot;, 微软雅黑, Arial;&quot;&gt;&lt;b&gt;&lt;font color=&quot;#ff0000&quot;&gt;Map&amp;lt;String,&amp;nbsp;BeanDefinition&amp;gt;&amp;nbsp;beanDefinitionMap&lt;/font&gt;&lt;/b&gt;&lt;/div&gt;" style="rounded=1;whiteSpace=wrap;html=1;" vertex="1" parent="1">
          <mxGeometry x="499" y="560" width="342" height="90" as="geometry" />
        </mxCell>
        <mxCell id="d3hzj_n655Mc2UOrFgAX-13" value="&lt;b style=&quot;color: rgb(50, 50, 50); font-family: &amp;quot;Microsoft YaHei&amp;quot;, 微软雅黑, Arial; font-size: 13px;&quot;&gt;&lt;font color=&quot;#ff0000&quot;&gt;BeanFactoryPostProcessor&lt;/font&gt;&lt;/b&gt;&lt;div style=&quot;resize: none; outline: none; font-size: 13px; color: rgb(50, 50, 50); font-family: &amp;quot;Microsoft YaHei&amp;quot;, 微软雅黑, Arial;&quot;&gt;执行扩展Bean的父接口&lt;/div&gt;" style="rounded=1;whiteSpace=wrap;html=1;" vertex="1" parent="1">
          <mxGeometry x="565" y="710" width="210" height="70" as="geometry" />
        </mxCell>
        <mxCell id="d3hzj_n655Mc2UOrFgAX-14" style="edgeStyle=orthogonalEdgeStyle;rounded=0;orthogonalLoop=1;jettySize=auto;html=1;entryX=0.5;entryY=0.071;entryDx=0;entryDy=0;entryPerimeter=0;" edge="1" parent="1" source="d3hzj_n655Mc2UOrFgAX-11" target="d3hzj_n655Mc2UOrFgAX-13">
          <mxGeometry relative="1" as="geometry" />
        </mxCell>
      </root>
    </mxGraphModel>
  </diagram>
</mxfile>
